<svg width="28" height="28" viewBox="0 0 28 28" fill="none" xmlns="http://www.w3.org/2000/svg">
<path d="M27.9847 14.262C27.9847 13.1149 27.8894 12.2778 27.6833 11.4097H14.2783V16.5873H22.1467C21.9881 17.874 21.1315 19.8118 19.2278 21.1139L19.2011 21.2873L23.4395 24.4958L23.7331 24.5245C26.4299 22.0906 27.9847 18.5096 27.9847 14.262Z" fill="#4285F4"/>
<path d="M14.279 27.904C18.1338 27.904 21.37 26.6637 23.7338 24.5245L19.2285 21.114C18.0228 21.9356 16.4047 22.5092 14.279 22.5092C10.5034 22.5092 7.29894 20.0754 6.15663 16.7114L5.9892 16.7253L1.58205 20.0583L1.52441 20.2149C3.87224 24.7725 8.69486 27.904 14.279 27.904Z" fill="#34A853"/>
<path d="M6.15705 16.7113C5.85565 15.8432 5.68121 14.913 5.68121 13.9519C5.68121 12.9907 5.85565 12.0606 6.14119 11.1925L6.13321 11.0076L1.67084 7.62109L1.52484 7.68896C0.557193 9.58024 0.00195312 11.7041 0.00195312 13.9519C0.00195312 16.1997 0.557193 18.3234 1.52484 20.2147L6.15705 16.7113Z" fill="#FBBC05"/>
<path d="M14.279 5.3947C16.9599 5.3947 18.7683 6.52635 19.7995 7.47204L23.8289 3.6275C21.3542 1.37969 18.1338 0 14.279 0C8.69485 0 3.87223 3.1314 1.52441 7.68899L6.14077 11.1925C7.29893 7.82856 10.5034 5.3947 14.279 5.3947Z" fill="#EB4335"/>
</svg>
