<svg width="18" height="18" viewBox="0 0 18 18" fill="none" xmlns="http://www.w3.org/2000/svg">
<path d="M5.83273 9.02598C5.45677 8.62142 4.82403 8.59823 4.41946 8.97419C4.0149 9.35015 3.99171 9.98289 4.36767 10.3875L5.83273 9.02598ZM7.46383 12.2502L6.7313 12.9309C6.9205 13.1345 7.1859 13.2502 7.46383 13.2502C7.74177 13.2502 8.00716 13.1345 8.19636 12.9309L7.46383 12.2502ZM13.6327 7.08093C14.0087 6.67637 13.9855 6.04363 13.5809 5.66767C13.1764 5.29171 12.5436 5.3149 12.1677 5.71946L13.6327 7.08093ZM4.41024 16.4044L4.02756 17.3282L4.41024 16.4044ZM1.59602 13.5901L0.672142 13.9728L1.59602 13.5901ZM16.4044 13.5901L17.3282 13.9728H17.3283L16.4044 13.5901ZM13.5901 16.4044L13.9728 17.3283V17.3282L13.5901 16.4044ZM13.5901 1.59602L13.9728 0.672142L13.5901 1.59602ZM16.4044 4.41024L17.3282 4.02756L16.4044 4.41024ZM4.41024 1.59602L4.79292 2.5199H4.79293L4.41024 1.59602ZM1.59602 4.41024L2.5199 4.79293V4.79292L1.59602 4.41024ZM4.36767 10.3875L6.7313 12.9309L8.19636 11.5695L5.83273 9.02598L4.36767 10.3875ZM8.19636 12.9309L13.6327 7.08093L12.1677 5.71946L6.7313 11.5695L8.19636 12.9309ZM9.0002 15.8002C7.77507 15.8002 6.9063 15.7997 6.22306 15.753C5.5488 15.707 5.12857 15.6195 4.79292 15.4805L4.02756 17.3282C4.64752 17.585 5.31082 17.6954 6.08692 17.7484C6.85402 17.8007 7.80243 17.8002 9.0002 17.8002V15.8002ZM0.200195 9.0002C0.200195 10.198 0.199654 11.1464 0.251993 11.9135C0.304945 12.6896 0.415346 13.3529 0.672142 13.9728L2.5199 13.2075C2.38087 12.8718 2.29336 12.4516 2.24735 11.7773C2.20074 11.0941 2.2002 10.2253 2.2002 9.0002H0.200195ZM4.79292 15.4805C3.76381 15.0542 2.94618 14.2366 2.5199 13.2075L0.672142 13.9728C1.3014 15.492 2.50838 16.699 4.02756 17.3282L4.79292 15.4805ZM15.8002 9.0002C15.8002 10.2253 15.7997 11.0941 15.753 11.7773C15.707 12.4516 15.6195 12.8718 15.4805 13.2075L17.3283 13.9728C17.585 13.3529 17.6954 12.6896 17.7484 11.9135C17.8007 11.1464 17.8002 10.198 17.8002 9.0002H15.8002ZM9.0002 17.8002C10.198 17.8002 11.1464 17.8007 11.9135 17.7484C12.6896 17.6954 13.3529 17.585 13.9728 17.3283L13.2075 15.4805C12.8718 15.6195 12.4516 15.707 11.7773 15.753C11.0941 15.7997 10.2253 15.8002 9.0002 15.8002V17.8002ZM15.4805 13.2075C15.0542 14.2366 14.2366 15.0542 13.2075 15.4805L13.9728 17.3282C15.492 16.699 16.699 15.492 17.3282 13.9728L15.4805 13.2075ZM9.0002 2.2002C10.2253 2.2002 11.0941 2.20074 11.7773 2.24735C12.4516 2.29336 12.8718 2.38087 13.2075 2.5199L13.9728 0.672142C13.3529 0.415346 12.6896 0.304945 11.9135 0.251993C11.1464 0.199654 10.198 0.200195 9.0002 0.200195V2.2002ZM17.8002 9.0002C17.8002 7.80243 17.8007 6.85402 17.7484 6.08692C17.6954 5.31082 17.585 4.64752 17.3282 4.02756L15.4805 4.79292C15.6195 5.12857 15.707 5.5488 15.753 6.22306C15.7997 6.9063 15.8002 7.77507 15.8002 9.0002H17.8002ZM13.2075 2.5199C14.2366 2.94618 15.0542 3.76381 15.4805 4.79292L17.3282 4.02756C16.699 2.50838 15.492 1.3014 13.9728 0.672142L13.2075 2.5199ZM9.0002 0.200195C7.80243 0.200195 6.85402 0.199654 6.08692 0.251993C5.31082 0.304945 4.64752 0.415346 4.02756 0.672142L4.79293 2.5199C5.12857 2.38087 5.5488 2.29336 6.22306 2.24735C6.9063 2.20074 7.77507 2.2002 9.0002 2.2002V0.200195ZM2.2002 9.0002C2.2002 7.77507 2.20074 6.9063 2.24735 6.22306C2.29336 5.5488 2.38087 5.12857 2.5199 4.79293L0.672142 4.02756C0.415346 4.64752 0.304945 5.31082 0.251993 6.08692C0.199654 6.85402 0.200195 7.80243 0.200195 9.0002H2.2002ZM4.02756 0.672142C2.50838 1.3014 1.3014 2.50838 0.672142 4.02756L2.5199 4.79292C2.94618 3.76381 3.76381 2.94618 4.79292 2.5199L4.02756 0.672142Z" fill="#0CC64B"/>
</svg>
