<svg width="34" height="34" viewBox="0 0 34 34" fill="none" xmlns="http://www.w3.org/2000/svg">
<rect x="5.66699" y="5.6665" width="9.91667" height="9.91667" rx="1.5" fill="#1B283F"/>
<path opacity="0.3" fill-rule="evenodd" clip-rule="evenodd" d="M18.417 7.16651C18.417 6.33808 19.0886 5.6665 19.917 5.6665H26.8337C27.6621 5.6665 28.3337 6.33808 28.3337 7.1665V14.0832C28.3337 14.9116 27.6621 15.5832 26.8337 15.5832H19.917C19.0886 15.5832 18.417 14.9116 18.417 14.0832V7.16651ZM5.66699 19.9165C5.66699 19.0881 6.33857 18.4165 7.16699 18.4165H14.0837C14.9121 18.4165 15.5837 19.0881 15.5837 19.9165V26.8332C15.5837 27.6616 14.9121 28.3332 14.0837 28.3332H7.16699C6.33857 28.3332 5.66699 27.6616 5.66699 26.8332V19.9165ZM19.917 18.4165C19.0886 18.4165 18.417 19.0881 18.417 19.9165V26.8332C18.417 27.6616 19.0886 28.3332 19.917 28.3332H26.8337C27.6621 28.3332 28.3337 27.6616 28.3337 26.8332V19.9165C28.3337 19.0881 27.6621 18.4165 26.8337 18.4165H19.917Z" fill="#1B283F"/>
</svg>
