<svg width="14" height="14" viewBox="0 0 14 14" fill="none" xmlns="http://www.w3.org/2000/svg">
<path d="M9.91634 3.50016C9.91634 5.11099 8.6105 6.41683 6.99967 6.41683C5.38884 6.41683 4.08301 5.11099 4.08301 3.50016C4.08301 1.88933 5.38884 0.583496 6.99967 0.583496C8.6105 0.583496 9.91634 1.88933 9.91634 3.50016Z" fill="#5E6278"/>
<path opacity="0.25" fill-rule="evenodd" clip-rule="evenodd" d="M10.9772 8.23966C10.6176 7.82277 9.99998 7.84425 9.51705 8.10858C8.76973 8.51762 7.91202 8.75018 7 8.75018C6.08798 8.75018 5.23027 8.51762 4.48295 8.10858C4.00001 7.84424 3.38241 7.82276 3.02284 8.23966C2.22963 9.15933 1.75 10.3571 1.75 11.6668V12.2502C1.75 12.8945 2.27233 13.4168 2.91667 13.4168H11.0833C11.7277 13.4168 12.25 12.8945 12.25 12.2502V11.6668C12.25 10.3571 11.7704 9.15933 10.9772 8.23966Z" fill="#5E6278"/>
</svg>
