<svg width="28" height="28" viewBox="0 0 28 28" fill="none" xmlns="http://www.w3.org/2000/svg">
<g clip-path="url(#clip0_3069_3580)">
<path fill-rule="evenodd" clip-rule="evenodd" d="M10.2661 0C8.71826 0.00114169 7.4656 1.25472 7.46674 2.79943C7.4656 4.34414 8.7194 5.59772 10.2672 5.59886H13.0677V2.80057C13.0688 1.25586 11.815 0.00228338 10.2661 0C10.2672 0 10.2672 0 10.2661 0V0ZM10.2661 7.46667H2.80046C1.25266 7.46781 -0.00114085 8.72139 3.12635e-06 10.2661C-0.00228483 11.8108 1.25151 13.0644 2.79932 13.0667H10.2661C11.8139 13.0655 13.0677 11.8119 13.0665 10.2672C13.0677 8.72139 11.8139 7.46781 10.2661 7.46667Z" fill="#36C5F0"/>
<path fill-rule="evenodd" clip-rule="evenodd" d="M28.0002 10.2661C28.0013 8.72139 26.7475 7.46781 25.1997 7.46667C23.6519 7.46781 22.3981 8.72139 22.3992 10.2661V13.0667H25.1997C26.7475 13.0655 28.0013 11.8119 28.0002 10.2661ZM20.5334 10.2661V2.79943C20.5345 1.25586 19.2819 0.00228338 17.7341 0C16.1863 0.00114169 14.9325 1.25472 14.9336 2.79943V10.2661C14.9313 11.8108 16.1851 13.0644 17.7329 13.0667C19.2807 13.0655 20.5345 11.8119 20.5334 10.2661Z" fill="#2EB67D"/>
<path fill-rule="evenodd" clip-rule="evenodd" d="M17.7331 28C19.2809 27.9989 20.5347 26.7453 20.5336 25.2006C20.5347 23.6558 19.2809 22.4023 17.7331 22.4011H14.9326V25.2006C14.9315 26.7441 16.1853 27.9977 17.7331 28ZM17.7331 20.5322H25.1999C26.7477 20.531 28.0015 19.2774 28.0003 17.7327C28.0026 16.188 26.7488 14.9344 25.201 14.9321H17.7342C16.1864 14.9333 14.9326 16.1869 14.9338 17.7316C14.9326 19.2774 16.1853 20.531 17.7331 20.5322Z" fill="#ECB22E"/>
<path fill-rule="evenodd" clip-rule="evenodd" d="M7.82209e-07 17.7325C-0.0011432 19.2773 1.25266 20.5309 2.80046 20.532C4.34826 20.5309 5.60206 19.2773 5.60092 17.7325V14.9331H2.80046C1.25266 14.9342 -0.0011432 16.1878 7.82209e-07 17.7325ZM7.46674 17.7325V25.1993C7.46446 26.744 8.71826 27.9976 10.2661 27.9998C11.8139 27.9987 13.0677 26.7451 13.0665 25.2004V17.7348C13.0688 16.1901 11.815 14.9365 10.2672 14.9342C8.71826 14.9342 7.4656 16.1878 7.46674 17.7325C7.46674 17.7325 7.46674 17.7337 7.46674 17.7325Z" fill="#E01E5A"/>
</g>
<defs>
<clipPath id="clip0_3069_3580">
<rect width="28" height="28" fill="white"/>
</clipPath>
</defs>
</svg>
